#N canvas 114 808 1439 772 10;
#N canvas 0 22 450 278 (subpatch) 0;
#X array arrayBTC5 20167 float 2;
#X coords 0 1 20167 -1 196 138 1 0 0;
#X restore 840 245 graph;
#N canvas 0 22 450 278 (subpatch) 0;
#X array arrayBTC2 16400 float 2;
#X coords 0 1 16400 -1 200 140 1;
#X restore 244 244 graph;
#N canvas 0 22 450 278 (subpatch) 0;
#X array arrayBTC1 11025 float 2;
#X coords 0 1 11025 -1 196 138 1;
#X restore 48 245 graph;
#N canvas 0 22 450 278 (subpatch) 0;
#X array arrayBTC4 25725 float 2;
#X coords 0 1 25725 -1 196 138 1 0 0;
#X restore 644 245 graph;
#N canvas 0 22 450 278 (subpatch) 0;
#X array arrayBTC3 16469 float 2;
#X coords 0 1 16469 -1 200 140 1 0 0;
#X restore 444 244 graph;
#N canvas 0 22 450 278 (subpatch) 0;
#X array arrayBTC6 14471 float 2;
#X coords 0 1 14471 -1 200 140 1 0 0;
#X restore 1036 245 graph;
#N canvas 0 22 450 278 (subpatch) 0;
#X array arrayBTC7 42561 float 2;
#X coords 0 1 42561 -1 200 140 1 0 0;
#X restore 1236 245 graph;
#N canvas 745 234 1196 673 load_samples_subpatch 0;
#X obj 39 209 soundfiler;
#X floatatom 39 231 5 0 0 0 - - -, f 5;
#X msg 39 177 read -resize /Users/Ben/Desktop/BTC_Sound/samples/BTC1.wav
arrayBTC1;
#X obj 455 208 soundfiler;
#X floatatom 455 230 5 0 0 0 - - -, f 5;
#X msg 455 176 read -resize /Users/Ben/Desktop/BTC_Sound/samples/BTC2.wav
arrayBTC2;
#X obj 37 373 soundfiler;
#X floatatom 37 395 5 0 0 0 - - -, f 5;
#X obj 454 372 soundfiler;
#X floatatom 454 394 5 0 0 0 - - -, f 5;
#X obj 865 207 soundfiler;
#X floatatom 865 229 5 0 0 0 - - -, f 5;
#X obj 862 369 soundfiler;
#X floatatom 862 391 5 0 0 0 - - -, f 5;
#X msg 865 175 read -resize /Users/Ben/Desktop/BTC_Sound/samples/BTC3.wav
arrayBTC3;
#X msg 37 341 read -resize /Users/Ben/Desktop/BTC_Sound/samples/BTC4.wav
arrayBTC4;
#X msg 454 340 read -resize /Users/Ben/Desktop/BTC_Sound/samples/BTC5.wav
arrayBTC5;
#X msg 862 337 read -resize /Users/Ben/Desktop/BTC_Sound/samples/BTC6.wav
arrayBTC6;
#X msg 862 337 read -resize /Users/Ben/Desktop/BTC_Sound/samples/BTC6.wav
arrayBTC6;
#X obj 37 541 soundfiler;
#X floatatom 37 563 5 0 0 0 - - -, f 5;
#X msg 37 509 read -resize /Users/Ben/Desktop/BTC_Sound/samples/BTC7.wav
arrayBTC7;
#X obj 455 152 r load_samples_bang;
#X obj 865 152 r load_samples_bang;
#X obj 862 311 r load_samples_bang;
#X obj 37 316 r load_samples_bang;
#X obj 454 315 r load_samples_bang;
#X obj 37 485 r load_samples_bang;
#X obj 30 119 s load_samples_bang;
#X obj 30 88 loadbang;
#X obj 39 154 r load_samples_bang;
#X obj 86 88 r reinit_samples_bang;
#X obj 39 253 s sample_duration;
#X obj 865 250 s sample_duration;
#X obj 455 253 s sample_duration;
#X obj 37 415 s sample_duration;
#X obj 454 416 s sample_duration;
#X obj 37 584 s sample_duration;
#X obj 862 411 s sample_duration;
#X obj -34 209 r d_sample1;
#X obj 382 208 r d_sample2;
#X obj 791 208 r d_sample3;
#X obj -36 373 r d_sample4;
#X obj 380 373 r d_sample5;
#X obj 788 370 r d_sample6;
#X obj -36 541 r d_sample7;
#X obj 448 546 soundfiler;
#X floatatom 448 568 5 0 0 0 - - -, f 5;
#X obj 448 489 r load_samples_bang;
#X obj 448 590 s sample_duration;
#X msg 447 514 read -resize /Users/Ben/Desktop/BTC_Sound/samples/drone.wav
arraydrone;
#X connect 0 0 1 0;
#X connect 1 0 32 0;
#X connect 2 0 0 0;
#X connect 3 0 4 0;
#X connect 4 0 34 0;
#X connect 5 0 3 0;
#X connect 6 0 7 0;
#X connect 7 0 35 0;
#X connect 8 0 9 0;
#X connect 9 0 36 0;
#X connect 10 0 11 0;
#X connect 11 0 33 0;
#X connect 12 0 13 0;
#X connect 13 0 38 0;
#X connect 14 0 10 0;
#X connect 15 0 6 0;
#X connect 16 0 8 0;
#X connect 17 0 12 0;
#X connect 19 0 20 0;
#X connect 20 0 37 0;
#X connect 21 0 19 0;
#X connect 22 0 5 0;
#X connect 23 0 14 0;
#X connect 24 0 17 0;
#X connect 25 0 15 0;
#X connect 26 0 16 0;
#X connect 27 0 21 0;
#X connect 29 0 28 0;
#X connect 30 0 2 0;
#X connect 31 0 28 0;
#X connect 39 0 1 0;
#X connect 40 0 4 0;
#X connect 41 0 11 0;
#X connect 42 0 7 0;
#X connect 43 0 9 0;
#X connect 44 0 13 0;
#X connect 45 0 20 0;
#X connect 46 0 47 0;
#X connect 47 0 49 0;
#X connect 48 0 50 0;
#X connect 50 0 46 0;
#X restore 814 71 pd load_samples_subpatch;
#X obj 227 67 bng 40 250 50 0 empty empty empty 17 7 0 10 -4034 -1
-1;
#X obj 227 114 s reinit_samples_bang;
#N canvas 0 22 450 278 (subpatch) 0;
#X coords 0 1 100 -1 467 191 1;
#X restore 49 22 graph;
#X text 992 32 SUBPATCHES;
#X obj 357 1042 tabplay~;
#X msg 430 906 set arrayBTC1;
#X msg 517 906 set arrayBTC2;
#X msg 603 906 set arrayBTC3;
#X msg 689 906 set arrayBTC4;
#X msg 775 906 set arrayBTC5;
#X msg 861 906 set arrayBTC6;
#X msg 947 906 set arrayBTC7;
#X obj 344 1124 dac~;
#X obj 73 67 tgl 30 0 empty empty empty 17 7 0 10 -262144 -1 -1 0 1
;
#X text 245 31 MAIN COMMANDS;
#X text 119 76 DSP ON/OFF;
#N canvas 0 22 450 278 (subpatch) 0;
#X coords 0 1 100 -1 140 80 1 0 0;
#X restore 221 60 graph;
#N canvas 0 22 450 278 (subpatch) 0;
#X coords 0 1 100 -1 140 80 1 0 0;
#X restore 60 60 graph;
#X text 274 73 RE-INITIALISE SAMPLES;
#N canvas 0 22 450 278 (subpatch) 0;
#X coords 0 1 100 -1 467 191 1;
#X restore 805 22 graph;
#X obj 361 588 bng 15 250 50 0 empty empty empty 17 7 0 10 -262144
-1 -1;
#X msg 73 103 \; pd dsp \$1;
#X obj 358 863 bng 25 250 50 0 empty empty empty 17 7 0 10 -4034 -262144
-1;
#X floatatom 551 829 5 0 0 0 - - -, f 5;
#X obj 918 867 bng 15 250 50 0 empty empty empty 17 7 0 10 -262144
-1 -1;
#X obj 843 866 bng 15 250 50 0 empty empty empty 17 7 0 10 -262144
-1 -1;
#X obj 768 866 bng 15 250 50 0 empty empty empty 17 7 0 10 -262144
-1 -1;
#X obj 470 868 bng 15 250 50 0 empty empty empty 17 7 0 10 -262144
-1 -1;
#X obj 693 867 bng 15 250 50 0 empty empty empty 17 7 0 10 -262144
-1 -1;
#X obj 620 867 bng 15 250 50 0 empty empty empty 17 7 0 10 -262144
-1 -1;
#X obj 545 867 bng 15 250 50 0 empty empty empty 17 7 0 10 -262144
-1 -1;
#X obj 359 697 t b b;
#X obj 551 696 random;
#X floatatom 595 696 5 0 0 0 - - -, f 5;
#X obj 551 715 t b f b f;
#X obj 566 734 f;
#X obj 551 772 f;
#X obj 566 753 ==;
#X obj 551 791 sel 0;
#X obj 596 791 sel 1;
#X obj 551 810 f;
#X obj 359 673 delay;
#X obj 551 847 sel 0 1 2 3 4 5;
#X floatatom 394 654 5 0 0 0 - - -, f 5;
#X obj 362 441 r sample_duration;
#X obj 470 886 s d_sample1;
#X obj 545 886 s d_sample2;
#X obj 620 887 s d_sample3;
#X obj 693 887 s d_sample4;
#X obj 768 887 s d_sample5;
#X obj 843 887 s d_sample6;
#X obj 917 887 s d_sample7;
#X text 428 634 offset;
#X obj 486 521 + 1;
#X floatatom 446 578 5 0 0 0 - - -, f 5;
#X obj 447 539 f;
#X msg 447 519 0;
#X obj 446 559 mod 7;
#X obj 362 561 spigot 0;
#X msg 598 676 7;
#X obj 597 653 loadbang;
#X obj 362 531 + 1;
#X floatatom 362 476 5 0 0 0 - - -, f 5;
#N canvas 0 22 450 278 (subpatch) 0;
#X array arraydrone 4e+06 float 2;
#X coords 0 1 4e+06 -1 200 140 1 0 0;
#X restore 33 679 graph;
#X obj 34 875 tabplay~;
#X msg 33 853 set arraydrone;
#X obj 119 875 bng 15 250 50 0 empty empty empty 17 7 0 10 -262144
-1 -1;
#X obj 34 897 *~ 10;
#X obj 390 635 + 500;
#X obj 390 616 random 200, f 25;
#X obj 33 830 r load_samples_bang;
#X obj 928 1051 sig~;
#X obj 902 1147 expr~ int($v1 * ($v2)) / ($v2);
#X obj 931 1027 pow 2;
#X msg 976 1003 24;
#X obj 880 974 hsl 128 15 2 24 1 0 empty empty empty -2 -8 0 10 -262144
-1 -1 0 1;
#X msg 875 1004 2;
#X text 1021 975 bit depth;
#X obj 1053 1107 samphold~;
#X obj 1109 977 hsl 128 15 100 44100 1 0 empty empty empty -2 -8 0
10 -262144 -1 -1 5750 1;
#X msg 1104 1007 100;
#X obj 1110 1044 phasor~;
#X msg 1205 1006 44100;
#X text 1250 978 samplerate;
#X obj 960 550 r load_samples_bang;
#N canvas 0 22 450 278 (subpatch) 0;
#X array arraybitcrusher_ramp 100 float 3;
#A 0 37860 36237.5 34615 33877.5 33140 32402.5 31665 30780 30337.5
29895 29600 29600 29600 29600 29550.8 29501.7 29452.5 29403.3 29354.2
29305 29305 29305 29305 29305 29305 29305 29305 29305 29305 29305 29206.7
29108.3 29010 28833 28656 28479 28302 28125 27889 27653 27417 27181
26945 26748.3 26551.7 26355 25986.2 25617.5 25248.8 24880 24644 24408
24172 23936 23700 23287 22874 22461 22048 21635 21251.5 20868 20484.5
20101 19717.5 19334 18950.5 18567 18183.5 17800 17283.8 16767.5 16251.2
15735 15145 14555 14063.3 13571.7 13080 12563.8 12047.5 11531.2 11015
10551.4 10087.9 9624.29 9160.71 8697.14 8233.57 7770 7032.5 6295 5705
4820 4230 3935 3197.5 2460 2165 1575;
#X coords 0 100 100 41400 200 140 1 0 0;
#X restore 1148 556 graph;
#X msg 960 573 set arraybitcrusher_ramp;
#X obj 939 595 tabread arraybitcrusher_ramp;
#X floatatom 940 526 5 0 0 0 - - -, f 5;
#X obj 34 875 tabplay~;
#X msg 33 853 set arraydrone;
#X obj 119 875 bng 15 250 50 0 empty empty empty 17 7 0 10 -262144
-1 -1;
#X obj 34 897 *~ 10;
#X obj 33 830 r load_samples_bang;
#X obj 925 461 f;
#X msg 925 441 0;
#X floatatom 1102 709 5 0 0 0 - - -, f 5;
#X obj 925 481 mod 41400;
#X obj 964 443 + 3000;
#X obj 828 554 metro 100;
#X connect 8 0 9 0;
#X connect 12 0 20 0;
#X connect 12 0 20 1;
#X connect 13 0 12 0;
#X connect 14 0 12 0;
#X connect 15 0 12 0;
#X connect 16 0 12 0;
#X connect 17 0 12 0;
#X connect 18 0 12 0;
#X connect 19 0 12 0;
#X connect 21 0 29 0;
#X connect 28 0 49 0;
#X connect 28 0 63 0;
#X connect 28 0 77 0;
#X connect 30 0 12 0;
#X connect 31 0 50 0;
#X connect 32 0 59 0;
#X connect 32 0 19 0;
#X connect 33 0 58 0;
#X connect 33 0 18 0;
#X connect 34 0 57 0;
#X connect 34 0 17 0;
#X connect 35 0 13 0;
#X connect 35 0 53 0;
#X connect 36 0 56 0;
#X connect 36 0 16 0;
#X connect 37 0 55 0;
#X connect 37 0 15 0;
#X connect 38 0 54 0;
#X connect 38 0 14 0;
#X connect 39 0 30 0;
#X connect 39 1 40 0;
#X connect 40 0 42 0;
#X connect 41 0 40 1;
#X connect 41 0 43 1;
#X connect 42 0 44 0;
#X connect 42 1 43 1;
#X connect 42 2 43 0;
#X connect 42 3 45 1;
#X connect 42 3 48 1;
#X connect 43 0 45 0;
#X connect 44 0 46 0;
#X connect 44 0 47 0;
#X connect 45 0 44 1;
#X connect 46 0 48 0;
#X connect 47 0 40 0;
#X connect 48 0 31 0;
#X connect 49 0 39 0;
#X connect 50 0 35 0;
#X connect 50 1 38 0;
#X connect 50 2 37 0;
#X connect 50 3 36 0;
#X connect 50 4 34 0;
#X connect 50 5 33 0;
#X connect 50 6 32 0;
#X connect 52 0 70 0;
#X connect 61 0 63 1;
#X connect 62 0 66 1;
#X connect 63 0 61 0;
#X connect 63 0 65 0;
#X connect 64 0 63 0;
#X connect 65 0 62 0;
#X connect 66 0 28 0;
#X connect 67 0 41 0;
#X connect 68 0 67 0;
#X connect 69 0 66 0;
#X connect 70 0 69 0;
#X connect 72 0 75 0;
#X connect 72 1 74 0;
#X connect 73 0 72 0;
#X connect 74 0 72 0;
#X connect 75 0 20 0;
#X connect 75 0 20 1;
#X connect 76 0 49 1;
#X connect 76 0 51 0;
#X connect 77 0 76 0;
#X connect 78 0 73 0;
#X connect 79 0 80 1;
#X connect 81 0 79 0;
#X connect 82 0 81 0;
#X connect 83 0 81 0;
#X connect 84 0 81 0;
#X connect 86 0 80 0;
#X connect 87 0 89 0;
#X connect 88 0 89 0;
#X connect 89 0 86 1;
#X connect 90 0 89 0;
#X connect 92 0 94 0;
#X connect 94 0 95 0;
#X connect 95 0 87 0;
#X connect 95 0 104 0;
#X connect 96 0 95 0;
#X connect 97 0 100 0;
#X connect 97 1 99 0;
#X connect 98 0 97 0;
#X connect 99 0 97 0;
#X connect 101 0 98 0;
#X connect 102 0 105 0;
#X connect 102 0 106 0;
#X connect 103 0 102 0;
#X connect 105 0 96 0;
#X connect 106 0 102 1;
#X connect 107 0 95 0;
